<svg height="128" viewBox="0 0 117 117" width="128" xmlns="http://www.w3.org/2000/svg"><g transform="matrix(1.16 0 0 1.16 -312.62 -355.54)"><path d="m370 314.05v85.9q0 3.5-1.85 5.2-1.7 1.85-5.25 1.85h-85.85q-7.05 0-7.05-7.05v-85.9q0-7.05 7.05-7.05h85.85q3.55 0 5.25 1.85 1.85 1.7 1.85 5.2m-2 0q0-5.05-5.1-5.05h-85.85q-5.05 0-5.05 5.05v85.9q0 5.05 5.05 5.05h85.85q5.1 0 5.1-5.05z" fill="#9ea4ad"/><path d="m362.9 311q3.1 0 3.1 3.05v85.9q0 3.05-3.1 3.05h-85.85q-3.05 0-3.05-3.05v-85.9q0-3.05 3.05-3.05z" fill="#d6dde7"/><path d="m362.9 311h-85.85q-3.05 0-3.05 3.05v85.9q0 3.05 3.05 3.05h85.85q3.1 0 3.1-3.05v-85.9q0-3.05-3.1-3.05m5.1 3.05v85.9q0 5.05-5.1 5.05h-85.85q-5.05 0-5.05-5.05v-85.9q0-5.05 5.05-5.05h85.85q5.1 0 5.1 5.05" fill="#ecf2fa"/><g fill="#9ea4ad"><path d="m280 315q0 .85-.6 1.4-.55.6-1.4.6-.85 0-1.45-.6-.55-.55-.55-1.4 0-.85.55-1.45.6-.55 1.45-.55.85 0 1.4.55.6.6.6 1.45"/><path d="m363.4 316.4q-.55.6-1.4.6-.85 0-1.45-.6-.55-.55-.55-1.4 0-.85.55-1.45.6-.55 1.45-.55.85 0 1.4.55.6.6.6 1.45 0 .85-.6 1.4"/><path d="m279.4 400.4q-.55.6-1.4.6-.85 0-1.45-.6-.55-.55-.55-1.4 0-.85.55-1.45.6-.55 1.45-.55.85 0 1.4.55.6.6.6 1.45 0 .85-.6 1.4"/><path d="m362 401q-.85 0-1.45-.6-.55-.55-.55-1.4 0-.85.55-1.45.6-.55 1.45-.55.85 0 1.4.55.6.6.6 1.45 0 .85-.6 1.4-.55.6-1.4.6"/></g></g><g transform="matrix(.70710678 .70710678 -.70710678 .70710678 152.560278 -350.432723)"><path d="m231.4 331.2-6.45-17.2h-1.5-1.4-1.5l-6.45 17.2-1.6-1.4 6.2-16.5q.2-.6.7-.95.5-.35 1.15-.35h4.4q.65 0 1.15.35l.75.95 6.2 16.55zm-.9 53.75h2.9l4.95-8.35 1 2.3-4.2 7.1-.75.7-1 .25h-21.3l-1-.25-.7-.7-4.2-7.1.95-2.3 4.95 8.35h2.9zm38.95-31.45-1-2.75.4-.45q.45-.35 1.05-.4l1.1.25 6.45 3.45q.5.25.8.75l.25 1.05-.3 1.05-16.8 26.4-.95.75-1.2.1-1.5-.35.75-1.9.15.05 1.05.25 16.8-26.4-6.45-3.45-.3.8zm-93.3.25-.7-1.85-6.45 3.45 16.8 26.4 1.05-.25h.05l.7 1.9-1.3.3-1.25-.1-.9-.75-16.8-26.4q-.35-.5-.35-1.05 0-.55.3-1.05.25-.5.75-.75l6.45-3.45q.5-.3 1.1-.25.6.05 1.05.4l.55.65z" fill="#cbcbcb"/><path d="m176.15 353.75 10.05 26 .2.45.1.3.35 1-1.05.25-16.8-26.4 6.45-3.45zm47.3-39.75h1.5l6.45 17.2 13.15 34.7-6.2 10.7-4.95 8.35h-2.9l6.5-20.45zm-9.35 17.2 6.45-17.2h1.5l-13.55 50.5 6.5 20.45h-2.9l-4.95-8.35-6.2-10.7zm16.35 23.05-6.35-23.5h-2.7l-6.25 23.5h-.05l6.3-25.5h2.7zm28.2 27.25 10.8-27.95.3-.85.3-.8 6.45 3.45-16.8 26.4z" fill="#f2f2f2"/><path d="m258.65 381.5-.15-.05-1.7-.4 1.05-3.35 2.9-9.4 5.15-16.6-.25-.15 3.8 2zm-20.3-4.9 6.2-10.7-13.15-34.7 3.4 1.85 1.5 2.8h-.05l.5.95 12.5 31.95-5 9.3zm-29.25-40.7 1.5-2.8 3.5-1.9-13.15 34.7 6.2 10.7-5.9 1.45-5-9.3 12.85-32.8zm-24.35 32.4 2.15 7.05.4 1.2.35 1.15 1.05 3.35-.05.05-1.75.4h-.05l-.35-1-.1-.3-.2-.45-10.05-26 3.55-1.9z" fill="#c94d2a"/><path d="m184.75 368.3-5.05-16.45 29.4-15.95v.05l-12.85 32.8 5 9.3-5.55 1.3-.9-3.4-2.55-9.45zm51.55-32.45 14.85 8 7.35 3.95 6.5 3.4.65.35.25.15-5.15 16.6-7.5-1.8-2.55 9.45-.9 3.4-5.55-1.3 5-9.3-12.5-31.95-.5-.95z" fill="#de532c"/><path d="m236.3 335.85-1.5-2.8-3.4-1.85 1.65-1.35 2.7 1.45.85.8 1.2 2.3 14.3 7.7 7.35 3.95 6.5 3.4 2.5 1.3 1 2.75v.05l-3.8-2-.65-.35-6.5-3.4-7.35-3.95zm-23.8-6.05 1.6 1.4-3.5 1.9-1.5 2.8-29.4 15.95-3.55 1.9 1.05-2.8 30.4-16.5 1.25-2.3q.25-.5.8-.8zm-11.25 48.25 5.9-1.45-.95 2.3-10 2.4-.5-1.95zm38.1.85-1-2.3 5.9 1.45 5.55 1.3-.55 1.95zm-51.75 4.5-.7-1.9 1.75-.4.55 1.9zm70.15-.05-1.55-.35.6-1.95 1.7.4z" fill="#a13e22"/><path d="m222.05 314h1.4l13.55 50.5-6.5 20.45h-15.5l-6.5-20.45zm-6.9 40.25-.3 1h15.85l-.25-1-6.35-25.5h-2.7l-6.3 25.5z" fill="#d7d7d7"/><path d="m215.15 354.25 6.25-23.5h2.7l6.35 23.5.25 1h-15.85z" fill="#4a3c55"/><path d="m184.75 368.3 7.5-1.8 2.55 9.45-7.15 1.75-.35-1.15-.4-1.2zm76 0-2.9 9.4-7.15-1.75 2.55-9.45z" fill="#fc0"/><path d="m187.65 377.7 7.15-1.75.9 3.4-7 1.7zm70.2 0-1.05 3.35-7-1.7.9-3.4z" fill="#ecbd02"/><path d="m195.7 379.35.5 1.95-7 1.7-.55-1.9.05-.05zm60.5 3.65-6.95-1.7.55-1.95 7 1.7z" fill="#bf9900"/><path d="m269.45 353.55v-.05l.3-.8z" fill="#9c3"/></g></svg>